<?xml version="1.0" encoding="utf-8"?>
<!-- Generator: Adobe Illustrator 15.0.0, SVG Export Plug-In . SVG Version: 6.00 Build 0)  -->
<!DOCTYPE svg PUBLIC "-//W3C//DTD SVG 1.1//EN" "http://www.w3.org/Graphics/SVG/1.1/DTD/svg11.dtd">
<svg version="1.1" id="Capa_1" xmlns="http://www.w3.org/2000/svg" xmlns:xlink="http://www.w3.org/1999/xlink" x="0px" y="0px"
	 width="595.279px" height="609.062px" viewBox="0 120.234 595.279 609.062" enable-background="new 0 120.234 595.279 609.062"
	 xml:space="preserve">
<g>
	<g>
		<g>
			<path fill="#FFFFFF" d="M178.584,599.528c-32.889,0-59.23,26.639-59.23,59.528c0,32.891,26.342,59.528,59.23,59.528
				s59.528-26.638,59.528-59.528C238.113,626.167,211.473,599.528,178.584,599.528z"/>
			<path fill="#FFFFFF" d="M211.324,450.709h221.741c22.323,0,41.818-12.352,52.087-30.656l106.406-193.169
				c2.382-4.167,3.721-9.079,3.721-14.287c0-16.519-13.394-29.763-29.763-29.763H125.455l-28.276-59.529H0v59.529h59.528
				L166.53,408.593l-40.182,72.922c-4.613,8.633-7.292,18.306-7.292,28.723c0,32.89,26.64,59.527,59.528,59.527h357.167v-59.528
				H191.234c-4.167,0-7.44-3.274-7.44-7.44c0-1.34,0.298-2.529,0.894-3.571L211.324,450.709z"/>
			<path fill="#FFFFFF" d="M476.223,599.528c-32.889,0-59.229,26.639-59.229,59.528c0,32.891,26.341,59.528,59.229,59.528
				c32.891,0,59.528-26.64,59.528-59.528S509.114,599.528,476.223,599.528z"/>
		</g>
	</g>
</g>
</svg>
